<svg width="152" height="198" viewBox="0 0 152 198" fill="none" xmlns="http://www.w3.org/2000/svg">
<path d="M78.9747 6.13812C56.7136 6.13812 38.6028 21.0989 38.6028 39.488C38.6028 45.7011 40.6862 51.7645 44.6292 57.0248L76.6766 99.6862C77.2905 100.503 78.372 101 79.5352 101C79.5441 101 79.5529 101 79.5619 101C80.7351 100.992 81.8189 100.48 82.4215 99.649L113.652 56.5743C117.378 51.425 119.347 45.5167 119.347 39.488C119.347 21.0989 101.236 6.13812 78.9747 6.13812ZM107.878 53.7206L79.4843 92.8823L50.3481 54.0964C47.0661 49.7179 45.2866 44.6665 45.2866 39.488C45.2866 24.1637 60.4238 11.6594 78.9747 11.6594C97.5256 11.6594 112.64 24.1637 112.64 39.488C112.64 44.5129 110.978 49.4352 107.878 53.7206Z" fill="white"/>
<path d="M64.2922 26.8643V31.4916L46.2123 47.989L64.2922 26.8643Z" fill="white"/>
<path d="M64.0052 27.0654L70.0319 31.4916L75.7716 35.7165L79.2154 40.3438L73.7627 35.7165L64.0052 31.4916V27.0654Z" fill="white"/>
<path d="M81.2243 18.7161V23.0417L69.171 33.2016L68.0657 32.1286L81.2243 18.7161Z" fill="white"/>
<path d="M81.0808 18.4144L96.7214 39.5391L81.0808 22.3375V18.4144Z" fill="white"/>
<path d="M100.452 23.0417V25.1542L91.1252 32.4975L88.9728 29.4797L100.452 23.0417Z" fill="white"/>
<path d="M100.452 23.0417L111.931 37.1248L100.452 25.1542V23.0417Z" fill="white"/>
<path d="M119.723 3.27363C115.454 -0.990197 107.646 -1.08423 97.6018 2.96434C96.9449 3.22752 96.2798 3.50962 95.6042 3.81046C93.2238 4.86761 90.783 6.11685 88.3084 7.5437C89.9775 7.65243 91.6404 7.85923 93.2908 8.16006C94.4706 7.55417 95.6397 6.99438 96.7943 6.48252C98.5786 5.69077 100.294 5.02849 101.925 4.50193C105.153 3.45727 108.058 2.93091 110.543 2.93091C112.078 2.93091 113.45 3.13147 114.643 3.53258C115.835 3.93369 116.847 4.53737 117.653 5.34181C119.933 7.61901 120.59 11.5319 119.65 16.5752C119.322 18.3425 118.797 20.25 118.077 22.2723C117.63 23.53 117.107 24.8314 116.509 26.1749C111.951 36.4137 103.649 47.8371 93.1359 58.3371C82.623 68.8371 71.1856 77.1289 60.9322 81.6831C59.5872 82.2806 58.284 82.8029 57.0248 83.2479C51.3269 85.2702 46.5579 85.7528 43.1987 84.6685C44.2069 85.8781 45.2716 87.0397 46.3865 88.149C46.6438 88.1615 46.9073 88.1657 47.173 88.1657C50.7435 88.1637 54.9563 87.2361 59.6729 85.3809C60.4741 85.0676 61.2918 84.7249 62.1223 84.3552C72.6958 79.6588 84.4448 71.1539 95.2067 60.4055C105.969 49.657 114.484 37.9223 119.186 27.3637C119.556 26.5343 119.899 25.7174 120.213 24.9151C120.989 22.943 121.604 21.0607 122.055 19.2766C123.857 12.1754 123.083 6.62871 119.723 3.27363ZM38.5427 60.8019C36.8401 64.625 35.7063 68.1557 35.1438 71.3229C35.8906 73.1426 36.7397 74.9099 37.6853 76.6189C37.476 72.7477 38.6621 67.7358 41.2181 61.9908C41.7306 60.8376 43.5281 58.0953 44.1369 56.9171C43.8337 55.2688 42.3916 55.1803 42.2828 53.5131C40.854 55.9866 39.601 58.4245 38.5427 60.8019Z" fill="white"/>
<path d="M34.5841 79.0108L22.9018 74.2053C21.9118 73.7982 21.6911 72.6861 22.4693 72.0271C22.7695 71.7728 23.1767 71.6301 23.6012 71.6299L43.3016 71.6288L34.5841 79.0108Z" fill="white"/>
<path d="M46.7402 75.0786L46.7389 91.1525C46.7389 91.5531 46.5296 91.933 46.1675 92.1906L46.0813 92.252C45.2806 92.8216 44.0604 92.5988 43.6081 91.8004L38.2206 82.2931L46.7402 75.0786Z" fill="white"/>
<path d="M31.5993 81.5384L23.2558 81.5369L22.2084 82.4239L28.1361 84.8622L31.5993 81.5384Z" fill="white"/>
<path d="M35.3556 84.7192L35.357 91.7843L34.2172 92.5931L31.4187 87.6566L35.3556 84.7192Z" fill="white"/>
<path d="M54.4276 65.388C53.3904 64.5097 51.7084 64.5097 50.6713 65.388L29.2926 83.4915C28.3535 84.2868 27.7493 85.3221 27.5737 86.4371C27.419 87.4202 28.4098 88.2592 29.5704 88.1279C30.8871 87.9793 32.1094 87.4678 33.0488 86.6723L54.4276 68.5687C55.4648 67.6906 55.4648 66.2663 54.4276 65.388Z" fill="white"/>
<g filter="url(#filter0_d)">
<path d="M60.6562 112.467C60.3958 112.63 60.1191 112.727 59.8262 112.76C59.5332 112.792 59.224 112.841 58.8984 112.906C58.6055 112.939 58.3288 113.004 58.0684 113.102C57.8079 113.199 57.6126 113.378 57.4824 113.639C57.1569 113.313 56.7988 113.036 56.4082 112.809C56.0176 112.581 55.627 112.337 55.2363 112.076C54.9108 112.174 54.5853 112.304 54.2598 112.467C53.9342 112.63 53.6087 112.711 53.2832 112.711C53.0553 112.711 52.8275 112.63 52.5996 112.467C52.3392 112.662 52.0299 112.825 51.6719 112.955C51.3464 113.053 50.9883 113.15 50.5977 113.248C50.2396 113.346 49.8978 113.476 49.5723 113.639C49.2793 113.801 49.0677 114.046 48.9375 114.371C48.8724 114.208 48.7096 114.16 48.4492 114.225C48.2214 114.29 48.0911 114.208 48.0586 113.98C47.0169 114.339 45.959 114.648 44.8848 114.908C43.8105 115.169 42.7363 115.445 41.6621 115.738C40.5879 116.031 39.5299 116.357 38.4883 116.715C37.4466 117.073 36.4375 117.512 35.4609 118.033C35.4284 118.066 35.4121 118.115 35.4121 118.18C35.4121 118.505 35.4609 118.814 35.5586 119.107C35.6562 119.4 35.7376 119.677 35.8027 119.938C35.2168 121.923 34.8262 123.941 34.6309 125.992C34.4355 128.043 34.1751 130.061 33.8496 132.047V132.242C33.8496 132.405 33.9147 132.535 34.0449 132.633C34.1751 132.698 34.2402 132.828 34.2402 133.023L34.1914 133.121C34.0286 133.219 33.9147 133.365 33.8496 133.561C33.7845 133.723 33.752 133.902 33.752 134.098C33.752 134.228 33.7845 134.423 33.8496 134.684C33.2962 136.539 32.9219 138.427 32.7266 140.348C32.5638 142.268 32.3522 144.189 32.0918 146.109L31.6523 149.332C31.5872 149.527 31.5221 149.723 31.457 149.918C31.4245 150.081 31.4082 150.26 31.4082 150.455C31.4082 151.497 31.4733 152.522 31.6035 153.531C31.7663 154.508 31.8151 155.517 31.75 156.559C32.043 157.014 32.1895 157.454 32.1895 157.877C32.1895 158.04 32.1732 158.202 32.1406 158.365C32.1406 158.528 32.1243 158.691 32.0918 158.854C32.515 159.277 33.0033 159.57 33.5566 159.732C34.1426 159.928 34.6634 160.221 35.1191 160.611V160.807C35.1191 161.132 35.0703 161.441 34.9727 161.734C34.875 162.06 34.7936 162.385 34.7285 162.711C34.6634 162.971 34.582 163.346 34.4844 163.834C34.4193 164.322 34.3216 164.648 34.1914 164.811C34.0286 165.038 33.7845 165.234 33.459 165.396C33.166 165.592 32.873 165.689 32.5801 165.689C32.4824 165.689 32.3359 165.641 32.1406 165.543C31.9779 165.445 31.8477 165.364 31.75 165.299C31.5872 165.299 31.3757 165.38 31.1152 165.543C30.8548 165.706 30.5944 165.787 30.334 165.787C30.2038 165.787 30.0898 165.771 29.9922 165.738C29.8945 165.738 29.7806 165.706 29.6504 165.641C29.5202 165.315 29.3249 165.022 29.0645 164.762C28.8366 164.534 28.5599 164.306 28.2344 164.078C28.2669 163.622 28.1855 163.281 27.9902 163.053C27.7949 162.825 27.5996 162.532 27.4043 162.174C27.3392 161.718 27.2741 161.197 27.209 160.611C27.1764 160.025 26.9323 159.602 26.4766 159.342C26.6393 159.114 26.7207 158.805 26.7207 158.414C26.7207 158.251 26.6882 158.072 26.623 157.877C26.5905 157.682 26.4928 157.535 26.3301 157.438V157.34C26.2975 157.177 26.3464 157.063 26.4766 156.998C26.6393 156.9 26.7207 156.77 26.7207 156.607V156.412C26.4928 155.37 26.3789 154.28 26.3789 153.141C26.3789 152.066 26.4115 151.008 26.4766 149.967C26.5417 148.893 26.5417 147.818 26.4766 146.744C26.6719 146.581 26.8184 146.321 26.916 145.963C27.0462 145.605 27.1439 145.214 27.209 144.791C27.2741 144.368 27.3066 143.961 27.3066 143.57C27.3392 143.147 27.3717 142.805 27.4043 142.545C27.5671 140.689 27.8275 138.867 28.1855 137.076C28.5436 135.253 28.7552 133.398 28.8203 131.51C28.9831 131.249 29.0807 130.908 29.1133 130.484C29.1458 130.061 29.1621 129.622 29.1621 129.166C29.1621 128.678 29.1947 128.206 29.2598 127.75C29.3249 127.294 29.4551 126.904 29.6504 126.578C29.6504 125.667 29.7318 124.755 29.8945 123.844C30.0573 122.9 30.1387 121.956 30.1387 121.012C30.1387 120.556 30.0898 120.084 29.9922 119.596C29.6667 119.465 29.3737 119.4 29.1133 119.4C28.7552 119.4 28.3809 119.482 27.9902 119.645C27.6322 119.775 27.3717 119.986 27.209 120.279C26.4928 120.312 25.793 120.426 25.1094 120.621C24.4258 120.816 23.7422 120.914 23.0586 120.914H22.5703C22.4401 120.914 22.2936 120.898 22.1309 120.865C21.903 120.963 21.6589 121.044 21.3984 121.109C21.1706 121.174 21.0729 121.37 21.1055 121.695C20.0964 121.793 19.1035 122.005 18.127 122.33C17.1829 122.656 16.2389 123.014 15.2949 123.404C14.3509 123.762 13.4069 124.104 12.4629 124.43C11.4863 124.755 10.4935 124.967 9.48438 125.064C9.1263 125.227 8.89844 125.569 8.80078 126.09C8.08464 126.025 7.48242 125.846 6.99414 125.553C6.50586 125.26 5.9362 124.983 5.28516 124.723C5.08984 124.039 4.99219 123.388 4.99219 122.77C4.99219 121.956 5.15495 121.174 5.48047 120.426C5.80599 119.677 6.32682 119.124 7.04297 118.766C7.20573 118.798 7.35221 118.831 7.48242 118.863C7.61263 118.863 7.75911 118.863 7.92188 118.863C8.44271 118.863 8.96354 118.766 9.48438 118.57C10.0052 118.375 10.5423 118.277 11.0957 118.277C11.2585 118.277 11.4375 118.326 11.6328 118.424C11.8607 118.294 12.1536 118.196 12.5117 118.131C12.8372 118.033 13.1465 117.952 13.4395 117.887C13.765 117.789 14.0579 117.659 14.3184 117.496C14.5788 117.333 14.7415 117.105 14.8066 116.812C14.9694 116.943 15.1484 117.024 15.3438 117.057C15.5391 117.089 15.7344 117.105 15.9297 117.105C16.3529 117.105 16.7923 117.024 17.248 116.861C17.7038 116.699 18.0618 116.438 18.3223 116.08C18.5501 116.34 18.8757 116.471 19.2988 116.471C19.7546 116.471 20.194 116.357 20.6172 116.129C21.0729 115.868 21.5124 115.738 21.9355 115.738C22.2611 115.738 22.5052 115.852 22.668 116.08C23.026 115.787 23.4492 115.559 23.9375 115.396C24.4258 115.234 24.9141 115.087 25.4023 114.957C25.9232 114.827 26.3952 114.68 26.8184 114.518C27.2741 114.355 27.6322 114.127 27.8926 113.834C28.0553 113.867 28.3158 113.883 28.6738 113.883C29.2272 113.883 29.748 113.818 30.2363 113.688C30.7572 113.525 31.278 113.378 31.7988 113.248L32.8242 113.15C33.0846 113.118 33.3125 113.036 33.5078 112.906C33.7357 112.776 33.9635 112.662 34.1914 112.564C34.4193 112.467 34.6471 112.385 34.875 112.32C35.1354 112.255 35.4447 112.239 35.8027 112.271C36.584 111.848 37.4141 111.523 38.293 111.295C39.1719 111.067 40.0671 110.872 40.9785 110.709C41.89 110.514 42.7852 110.302 43.6641 110.074C44.543 109.814 45.373 109.439 46.1543 108.951H46.3008C46.9518 108.951 47.5866 108.837 48.2051 108.609C48.8561 108.382 49.4583 108.072 50.0117 107.682C50.1094 107.714 50.207 107.73 50.3047 107.73H50.6465C51.5579 107.73 52.4368 107.6 53.2832 107.34C54.1621 107.079 55.0736 106.949 56.0176 106.949C56.571 106.949 57.0104 107.031 57.3359 107.193C57.6615 107.324 57.9544 107.503 58.2148 107.73C58.4753 107.926 58.752 108.121 59.0449 108.316C59.3379 108.512 59.7122 108.658 60.168 108.756C60.4609 109.309 60.6074 109.911 60.6074 110.562C60.6074 111.181 60.6237 111.816 60.6562 112.467ZM108.215 150.504C108.15 150.992 107.971 151.367 107.678 151.627C107.417 151.887 107.108 152.132 106.75 152.359C106.587 152.327 106.424 152.311 106.262 152.311C106.132 152.278 105.985 152.262 105.822 152.262C104.813 152.229 103.853 152.359 102.941 152.652C102.062 152.945 101.151 153.157 100.207 153.287C99.8815 153.352 99.5723 153.385 99.2793 153.385C99.0189 153.352 98.7422 153.368 98.4492 153.434C97.4076 153.596 96.3008 153.727 95.1289 153.824C93.957 153.922 92.7852 154.052 91.6133 154.215C90.4414 154.345 89.2858 154.524 88.1465 154.752C87.0397 154.947 85.998 155.24 85.0215 155.631C84.9238 155.566 84.8262 155.501 84.7285 155.436C84.6309 155.338 84.5169 155.289 84.3867 155.289C84.0612 155.289 83.752 155.338 83.459 155.436C83.166 155.533 82.873 155.566 82.5801 155.533C82.2546 155.729 81.8965 155.875 81.5059 155.973C81.1478 156.038 80.7734 156.103 80.3828 156.168C80.0247 156.201 79.6667 156.266 79.3086 156.363C78.9505 156.461 78.6087 156.64 78.2832 156.9C78.0228 156.77 77.6973 156.705 77.3066 156.705C76.9486 156.673 76.7044 156.542 76.5742 156.314C75.8255 156.673 75.028 156.9 74.1816 156.998C73.3678 157.096 72.5378 157.128 71.6914 157.096C71.138 157.063 70.5033 156.982 69.7871 156.852C69.071 156.721 68.3548 156.542 67.6387 156.314C66.9225 156.054 66.2552 155.761 65.6367 155.436C65.0182 155.077 64.5462 154.654 64.2207 154.166C63.9928 153.84 63.8301 153.482 63.7324 153.092C63.6348 152.701 63.4069 152.408 63.0488 152.213C63.1465 151.464 63.2604 150.732 63.3906 150.016C63.5208 149.299 63.651 148.567 63.7812 147.818C64.4323 147.265 65.0508 146.679 65.6367 146.061C66.2227 145.442 66.776 144.791 67.2969 144.107C67.9154 143.814 68.485 143.456 69.0059 143.033C69.5592 142.61 70.0964 142.187 70.6172 141.764C71.1706 141.308 71.7077 140.868 72.2285 140.445C72.7819 140.022 73.3678 139.648 73.9863 139.322C74.084 139.094 74.2142 138.915 74.377 138.785C74.5723 138.622 74.7676 138.476 74.9629 138.346C75.1582 138.183 75.3372 138.02 75.5 137.857C75.6628 137.662 75.7767 137.434 75.8418 137.174C76.9811 136.49 77.974 135.628 78.8203 134.586C79.6667 133.544 80.2201 132.372 80.4805 131.07C79.9271 130.615 79.2923 130.322 78.5762 130.191C77.8926 130.029 77.1764 129.915 76.4277 129.85C75.7767 129.817 75.0931 129.817 74.377 129.85C73.6934 129.882 72.9935 129.866 72.2773 129.801C71.5612 130.029 70.8125 130.175 70.0312 130.24C69.2826 130.305 68.5339 130.37 67.7852 130.436C67.0365 130.468 66.2878 130.566 65.5391 130.729C64.8229 130.859 64.123 131.119 63.4395 131.51C63.3092 131.51 63.179 131.493 63.0488 131.461C62.9512 131.428 62.8372 131.412 62.707 131.412C61.6654 131.38 60.6888 131.591 59.7773 132.047C58.8659 132.47 57.9707 132.893 57.0918 133.316C57.0267 133.447 56.9941 133.544 56.9941 133.609C56.9941 133.805 57.0267 134 57.0918 134.195C57.1895 134.358 57.2383 134.537 57.2383 134.732C57.2057 134.765 57.1895 134.798 57.1895 134.83C57.1895 134.863 57.1732 134.895 57.1406 134.928C57.1081 135.09 57.0592 135.237 56.9941 135.367C56.9616 135.497 56.9128 135.644 56.8477 135.807C56.4896 136.848 56.2943 137.874 56.2617 138.883C56.2292 139.729 56.2292 140.559 56.2617 141.373C56.2943 142.187 56.2943 143.017 56.2617 143.863C56.1966 144.905 56.0339 145.882 55.7734 146.793C55.9362 147.574 56.0827 148.404 56.2129 149.283C56.3431 150.13 56.5059 150.976 56.7012 151.822C56.8965 152.669 57.1243 153.499 57.3848 154.312C57.6777 155.094 58.0521 155.842 58.5078 156.559C58.4753 156.624 58.4915 156.673 58.5566 156.705C58.6217 156.738 58.6868 156.754 58.752 156.754H59.1426C59.3053 156.754 59.3704 156.819 59.3379 156.949C59.403 157.047 59.4518 157.145 59.4844 157.242C59.5169 157.307 59.582 157.372 59.6797 157.438C59.7448 157.535 59.7448 157.665 59.6797 157.828C59.6471 158.479 59.4844 159.081 59.1914 159.635C58.8984 160.188 58.7194 160.79 58.6543 161.441C58.2637 161.539 57.9056 161.588 57.5801 161.588C57.0267 161.555 56.5384 161.393 56.1152 161.1C55.6921 160.839 55.3014 160.514 54.9434 160.123C54.5853 159.732 54.2435 159.342 53.918 158.951C53.5924 158.528 53.2344 158.17 52.8438 157.877C52.6159 156.965 52.388 155.956 52.1602 154.85C51.9648 153.743 51.623 152.799 51.1348 152.018C51.265 151.725 51.3301 151.367 51.3301 150.943C51.3626 150.292 51.2975 149.658 51.1348 149.039C51.0046 148.388 50.972 147.737 51.0371 147.086C51.0371 146.728 51.0697 146.37 51.1348 146.012C51.2324 145.654 51.2975 145.296 51.3301 144.938C51.3626 144.384 51.2975 143.847 51.1348 143.326C51.0046 142.805 50.9557 142.268 50.9883 141.715C51.0208 141.454 51.0697 141.21 51.1348 140.982C51.2324 140.722 51.3626 140.494 51.5254 140.299C51.3626 139.908 51.3138 139.534 51.3789 139.176C51.4115 138.622 51.4766 138.102 51.5742 137.613C51.6719 137.125 51.737 136.637 51.7695 136.148C51.7695 135.888 51.7533 135.644 51.7207 135.416C51.6882 135.156 51.6393 134.911 51.5742 134.684L51.1348 134.537C50.9395 134.537 50.7441 134.586 50.5488 134.684C50.3861 134.781 50.2396 134.895 50.1094 135.025C49.9792 135.156 49.8652 135.27 49.7676 135.367C49.6699 135.432 49.5723 135.465 49.4746 135.465C49.4095 135.465 49.3281 135.465 49.2305 135.465C49.1654 135.432 49.1003 135.416 49.0352 135.416C48.9701 135.416 48.8398 135.481 48.6445 135.611C48.4818 135.742 48.2702 135.888 48.0098 136.051C47.7819 136.181 47.554 136.327 47.3262 136.49C47.0983 136.62 46.9193 136.702 46.7891 136.734C46.431 136.669 46.138 136.555 45.9102 136.393C45.7148 136.197 45.5195 136.018 45.3242 135.855C45.1615 135.66 44.9824 135.497 44.7871 135.367C44.5918 135.204 44.3477 135.139 44.0547 135.172C43.957 134.977 43.9082 134.765 43.9082 134.537C43.8757 134.309 43.8757 134.081 43.9082 133.854V133.072C44.1361 132.649 44.4453 132.307 44.8359 132.047C45.194 131.754 45.5846 131.51 46.0078 131.314L47.2773 130.729C47.7005 130.533 48.0911 130.289 48.4492 129.996H48.8887C49.4746 130.029 49.9792 129.915 50.4023 129.654C50.8581 129.394 51.2812 129.101 51.6719 128.775C52.0625 128.417 52.4531 128.059 52.8438 127.701C53.2669 127.343 53.7227 127.066 54.2109 126.871C54.569 127.034 54.9434 127.18 55.334 127.311C55.7246 127.408 56.1315 127.473 56.5547 127.506C56.9779 127.506 57.4173 127.441 57.873 127.311C58.3288 127.18 58.6868 126.936 58.9473 126.578C59.11 126.643 59.2402 126.692 59.3379 126.725C59.4681 126.725 59.6146 126.725 59.7773 126.725C60.2656 126.757 60.7539 126.692 61.2422 126.529C61.7305 126.334 62.2025 126.106 62.6582 125.846C63.3092 125.878 63.944 125.846 64.5625 125.748C65.2135 125.618 65.8483 125.488 66.4668 125.357C67.1178 125.227 67.7526 125.113 68.3711 125.016C69.0221 124.885 69.6732 124.837 70.3242 124.869C71.3984 124.902 72.4564 124.804 73.498 124.576C74.5397 124.348 75.5977 124.267 76.6719 124.332C77.4206 124.365 78.153 124.43 78.8691 124.527C79.6178 124.592 80.3665 124.609 81.1152 124.576C81.5384 124.771 81.9128 124.951 82.2383 125.113C82.5964 125.243 83.0358 125.276 83.5566 125.211C84.5983 126.09 85.5423 127.115 86.3887 128.287V129.117C86.3561 129.866 86.2259 130.598 85.998 131.314C85.7702 132.031 85.4935 132.747 85.168 133.463C84.875 134.146 84.5495 134.83 84.1914 135.514C83.8333 136.165 83.4915 136.816 83.166 137.467C81.0501 139.387 78.9342 141.292 76.8184 143.18C74.7025 145.068 72.5215 146.891 70.2754 148.648C70.2103 148.974 70.1126 149.267 69.9824 149.527C69.8848 149.788 69.8197 150.064 69.7871 150.357C69.7871 150.52 69.8034 150.65 69.8359 150.748C70.0638 150.813 70.2591 150.943 70.4219 151.139C70.6172 151.301 70.6823 151.529 70.6172 151.822H71.0566C71.2194 151.822 71.3008 151.887 71.3008 152.018L72.082 152.066C73.319 152.132 74.556 152.099 75.793 151.969C77.0299 151.839 78.2669 151.692 79.5039 151.529C80.7734 151.367 82.0267 151.22 83.2637 151.09C84.5007 150.927 85.7376 150.829 86.9746 150.797C87.2676 150.699 87.5768 150.618 87.9023 150.553C88.2279 150.488 88.5208 150.357 88.7812 150.162H88.9277C89.1556 150.162 89.3184 150.227 89.416 150.357C89.5462 150.488 89.7253 150.569 89.9531 150.602C90.1159 150.602 90.2786 150.569 90.4414 150.504C90.6367 150.439 90.832 150.39 91.0273 150.357C91.4831 150.227 91.9551 150.146 92.4434 150.113C92.9642 150.081 93.4688 150.032 93.957 149.967C95.8451 149.804 97.7168 149.706 99.5723 149.674C101.428 149.609 103.283 149.365 105.139 148.941C105.301 149.169 105.529 149.332 105.822 149.43C106.115 149.495 106.424 149.576 106.75 149.674C107.076 149.739 107.368 149.82 107.629 149.918C107.922 150.016 108.117 150.211 108.215 150.504ZM104.895 152.311C104.732 152.571 104.536 152.815 104.309 153.043C104.081 153.238 103.869 153.45 103.674 153.678C103.446 153.775 103.186 153.824 102.893 153.824C102.632 153.824 102.372 153.824 102.111 153.824C101.883 153.792 101.656 153.792 101.428 153.824C101.232 153.824 101.07 153.889 100.939 154.02C100.679 153.954 100.484 153.84 100.354 153.678C100.223 153.482 99.9954 153.368 99.6699 153.336C99.5397 153.303 99.4095 153.303 99.2793 153.336C98.791 152.783 98.3353 152.197 97.9121 151.578C97.5215 150.96 97.1471 150.374 96.7891 149.82C96.7565 148.616 96.6589 147.395 96.4961 146.158C96.4635 145.865 96.4147 145.572 96.3496 145.279C96.2845 144.986 96.2357 144.71 96.2031 144.449C96.2031 144.124 96.2194 143.814 96.252 143.521C96.3171 143.196 96.3659 142.903 96.3984 142.643C96.5286 141.699 96.6751 140.771 96.8379 139.859C97.0007 138.948 97.1471 138.02 97.2773 137.076C97.4076 136.23 97.4727 135.351 97.4727 134.439C97.4727 133.495 97.3262 132.617 97.0332 131.803L96.9844 131.559C97.0495 131.298 97.1146 131.087 97.1797 130.924C97.2773 130.729 97.3424 130.517 97.375 130.289C97.4401 129.931 97.3587 129.671 97.1309 129.508C97.2285 129.247 97.3913 129.085 97.6191 129.02C97.847 128.922 97.9772 128.727 98.0098 128.434C98.0423 128.303 98.0423 128.173 98.0098 128.043C98.2702 127.945 98.5306 127.864 98.791 127.799C99.084 127.701 99.3607 127.685 99.6211 127.75C100.044 127.815 100.419 127.962 100.744 128.189C101.07 128.385 101.379 128.613 101.672 128.873C102.193 130.436 102.404 132.096 102.307 133.854C102.209 135.579 102.046 137.32 101.818 139.078C101.59 140.836 101.444 142.561 101.379 144.254C101.314 145.914 101.574 147.46 102.16 148.893L102.258 148.941C102.421 148.974 102.551 148.925 102.648 148.795C102.746 148.632 102.876 148.567 103.039 148.6C103.169 148.665 103.251 148.697 103.283 148.697C103.413 149.348 103.625 149.967 103.918 150.553C104.211 151.139 104.536 151.725 104.895 152.311ZM147.668 131.852C147.668 132.307 147.652 132.763 147.619 133.219C147.587 133.674 147.538 134.13 147.473 134.586C147.245 134.911 147.017 135.204 146.789 135.465C146.594 135.693 146.464 135.986 146.398 136.344C146.04 136.604 145.633 136.962 145.178 137.418C144.755 137.874 144.576 138.329 144.641 138.785H143.957C143.566 139.371 143.111 139.876 142.59 140.299C142.069 140.722 141.516 141.129 140.93 141.52L139.221 142.643C138.667 143.001 138.146 143.424 137.658 143.912C137.398 143.945 137.186 143.993 137.023 144.059C136.861 144.124 136.649 144.14 136.389 144.107C135.38 144.758 134.322 145.328 133.215 145.816C132.141 146.305 131.05 146.793 129.943 147.281C128.869 147.737 127.795 148.225 126.721 148.746C125.646 149.267 124.621 149.869 123.645 150.553C123.547 150.52 123.417 150.504 123.254 150.504C122.961 150.504 122.668 150.553 122.375 150.65C122.082 150.715 121.789 150.748 121.496 150.748C121.366 150.748 121.187 150.732 120.959 150.699C120.764 150.667 120.617 150.618 120.52 150.553C120.357 150.455 120.21 150.309 120.08 150.113C119.95 149.918 119.852 149.706 119.787 149.479C119.722 149.218 119.673 148.974 119.641 148.746C119.608 148.518 119.592 148.323 119.592 148.16C119.592 147.965 119.608 147.753 119.641 147.525C119.673 147.298 119.722 147.086 119.787 146.891C120.731 146.826 121.675 146.581 122.619 146.158C123.596 145.735 124.523 145.328 125.402 144.938C125.63 144.84 125.809 144.726 125.939 144.596C126.102 144.433 126.265 144.303 126.428 144.205C126.59 144.075 126.77 143.961 126.965 143.863C127.16 143.766 127.404 143.717 127.697 143.717H127.844C129.895 142.773 131.896 141.747 133.85 140.641C135.835 139.534 137.805 138.411 139.758 137.271C139.855 136.979 140.002 136.686 140.197 136.393C140.425 136.1 140.637 135.823 140.832 135.562C141.027 135.27 141.206 134.977 141.369 134.684C141.532 134.391 141.613 134.098 141.613 133.805C141.613 133.219 141.337 132.73 140.783 132.34H140.588C140.197 132.34 139.855 132.291 139.562 132.193C139.27 132.063 138.993 131.949 138.732 131.852C138.472 131.721 138.179 131.624 137.854 131.559C137.528 131.461 137.154 131.428 136.73 131.461C136.568 131.331 136.307 131.217 135.949 131.119C135.591 131.021 135.298 130.973 135.07 130.973C133.898 130.973 132.743 131.054 131.604 131.217C130.464 131.347 129.325 131.428 128.186 131.461C127.893 131.624 127.616 131.77 127.355 131.9C127.095 132.031 126.786 132.096 126.428 132.096C126.265 132.096 126.118 132.096 125.988 132.096C125.858 132.063 125.712 132.031 125.549 131.998C124.93 132.258 124.23 132.486 123.449 132.682C122.668 132.844 121.887 133.056 121.105 133.316C120.357 133.544 119.657 133.837 119.006 134.195C118.355 134.553 117.85 135.042 117.492 135.66C117.492 135.823 117.525 135.969 117.59 136.1C117.655 136.197 117.688 136.327 117.688 136.49V136.686C117.492 136.881 117.362 137.109 117.297 137.369C117.232 137.597 117.183 137.841 117.15 138.102C117.118 138.329 117.069 138.574 117.004 138.834C116.971 139.062 116.857 139.29 116.662 139.518C116.792 140.006 116.857 140.543 116.857 141.129C116.857 141.78 116.809 142.431 116.711 143.082C116.646 143.733 116.613 144.384 116.613 145.035C116.613 145.654 116.678 146.207 116.809 146.695C116.613 146.891 116.532 147.184 116.564 147.574C116.597 147.965 116.516 148.258 116.32 148.453C116.32 148.714 116.385 148.893 116.516 148.99C116.678 149.088 116.776 149.251 116.809 149.479C116.678 150.032 116.613 150.634 116.613 151.285C116.613 152.229 116.711 153.189 116.906 154.166C117.134 155.143 117.395 156.103 117.688 157.047C118.208 156.884 118.762 156.754 119.348 156.656C119.966 156.526 120.552 156.461 121.105 156.461C121.203 156.461 121.301 156.477 121.398 156.51C121.496 156.51 121.594 156.51 121.691 156.51C121.757 156.868 121.887 157.193 122.082 157.486C122.277 157.779 122.456 158.105 122.619 158.463C122.456 158.691 122.31 158.87 122.18 159C122.082 159.163 122.033 159.374 122.033 159.635C121.577 159.667 121.203 159.781 120.91 159.977C120.617 160.204 120.292 160.449 119.934 160.709H119.738C119.185 160.709 118.729 160.807 118.371 161.002C118.013 161.23 117.606 161.474 117.15 161.734C116.76 161.572 116.369 161.49 115.979 161.49C115.555 161.49 115.132 161.572 114.709 161.734C114.188 161.507 113.765 161.148 113.439 160.66C113.114 160.204 112.837 159.684 112.609 159.098C112.382 158.544 112.17 157.975 111.975 157.389C111.812 156.803 111.617 156.266 111.389 155.777V154.996C111.389 154.247 111.324 153.531 111.193 152.848C111.096 152.132 111.047 151.399 111.047 150.65C111.047 150.357 111.063 150.048 111.096 149.723C111.161 149.397 111.258 149.088 111.389 148.795C111.324 148.502 111.291 148.225 111.291 147.965V147.037C111.291 146.061 111.324 145.084 111.389 144.107C111.486 143.131 111.535 142.154 111.535 141.178C111.535 140.462 111.486 139.729 111.389 138.98C111.226 139.046 111.079 139.111 110.949 139.176C110.819 139.241 110.673 139.273 110.51 139.273C110.347 139.273 110.184 139.257 110.021 139.225C109.891 139.192 109.761 139.16 109.631 139.127C109.305 138.834 109.077 138.476 108.947 138.053C108.817 137.63 108.638 137.239 108.41 136.881C108.41 136.262 108.508 135.758 108.703 135.367C108.866 134.944 109.077 134.57 109.338 134.244C109.598 133.886 109.859 133.544 110.119 133.219C110.412 132.893 110.656 132.486 110.852 131.998H111.047C111.568 131.998 112.089 131.835 112.609 131.51C113.13 131.152 113.716 130.973 114.367 130.973C114.595 130.68 114.904 130.436 115.295 130.24C115.686 130.012 116.092 129.833 116.516 129.703C116.971 129.573 117.411 129.492 117.834 129.459C118.29 129.394 118.713 129.361 119.104 129.361C119.234 129.133 119.429 128.987 119.689 128.922C119.95 128.824 120.21 128.743 120.471 128.678C120.764 128.58 121.024 128.499 121.252 128.434C121.512 128.336 121.724 128.173 121.887 127.945C122.147 128.01 122.391 128.043 122.619 128.043C123.042 128.043 123.449 127.994 123.84 127.896C124.23 127.766 124.621 127.636 125.012 127.506C125.402 127.343 125.793 127.197 126.184 127.066C126.607 126.936 127.046 126.871 127.502 126.871C127.665 126.871 127.827 126.887 127.99 126.92C128.153 126.92 128.316 126.92 128.479 126.92C128.739 126.92 128.885 126.822 128.918 126.627C128.983 126.432 129.097 126.285 129.26 126.188C129.357 126.22 129.536 126.236 129.797 126.236C130.448 126.236 131.083 126.188 131.701 126.09C132.32 125.96 132.954 125.895 133.605 125.895C133.898 125.895 134.191 125.911 134.484 125.943C134.777 125.976 135.07 126.057 135.363 126.188C135.428 126.09 135.493 126.008 135.559 125.943C135.624 125.878 135.673 125.797 135.705 125.699C137.3 125.797 138.798 126.122 140.197 126.676C141.63 127.229 143.111 127.717 144.641 128.141C144.836 128.434 145.064 128.694 145.324 128.922L146.154 129.605C146.447 129.833 146.724 130.061 146.984 130.289C147.245 130.517 147.473 130.794 147.668 131.119V131.852Z" fill="white"/>
</g>
<defs>
<filter id="filter0_d" x="0.992188" y="106.949" width="150.676" height="66.8379" filterUnits="userSpaceOnUse" color-interpolation-filters="sRGB">
<feFlood flood-opacity="0" result="BackgroundImageFix"/>
<feColorMatrix in="SourceAlpha" type="matrix" values="0 0 0 0 0 0 0 0 0 0 0 0 0 0 0 0 0 0 127 0"/>
<feOffset dy="4"/>
<feGaussianBlur stdDeviation="2"/>
<feColorMatrix type="matrix" values="0 0 0 0 0 0 0 0 0 0 0 0 0 0 0 0 0 0 0.25 0"/>
<feBlend mode="normal" in2="BackgroundImageFix" result="effect1_dropShadow"/>
<feBlend mode="normal" in="SourceGraphic" in2="effect1_dropShadow" result="shape"/>
</filter>
</defs>
</svg>
