<svg width="30" height="30" viewBox="0 0 30 30" fill="none" xmlns="http://www.w3.org/2000/svg">
<path d="M3.8592 12.93C3.65398 13.3528 3.5475 13.8167 3.5478 14.2866L3.6636 21.5616L1.1406 26.976C1.04927 27.1445 0.988142 27.3276 0.960004 27.5172C0.927505 27.73 0.937386 27.9472 0.989078 28.1561C1.04077 28.3651 1.13326 28.5618 1.26122 28.735C1.38918 28.9081 1.5501 29.0542 1.73472 29.1649C1.91934 29.2757 2.12402 29.3488 2.337 29.3802C2.6688 29.4311 3.00821 29.3785 3.30911 29.2298C3.61001 29.081 3.8578 28.8431 4.0188 28.5486L6.7944 22.6302C6.852 22.4928 6.9036 22.3482 6.9246 22.1898L6.9396 21.9666L6.918 17.469L11.1834 19.3242L11.8722 23.7198C11.9437 24.0428 12.1116 24.3366 12.3536 24.5622C12.5956 24.7878 12.9004 24.9347 13.2276 24.9834C13.6571 25.0468 14.0942 24.9385 14.4444 24.6819C14.7946 24.4253 15.0295 24.041 15.0984 23.6124C15.1194 23.4606 15.1194 23.3088 15.105 23.1648L14.2644 17.8584C14.2139 17.6038 14.1043 17.3647 13.9444 17.1602C13.7846 16.9557 13.5789 16.7916 13.344 16.6812L9.5316 14.994L11.9592 10.7856L13.1634 12.309C13.2864 12.4458 13.446 12.5616 13.6266 12.6336L18.2154 13.9686C18.5122 14.0334 18.8224 13.9916 19.0914 13.8505C19.3604 13.7094 19.5712 13.478 19.6866 13.197C19.7505 13.04 19.7829 12.8719 19.7818 12.7024C19.7807 12.5328 19.7462 12.3652 19.6803 12.209C19.6144 12.0528 19.5183 11.9111 19.3976 11.7921C19.2769 11.673 19.1339 11.5789 18.9768 11.5152L18.9114 11.4936L14.9244 10.3242L11.9232 6.73681C11.4601 6.24285 10.8455 5.91748 10.1766 5.81221C9.59907 5.72609 9.00896 5.81073 8.47891 6.05571C7.94887 6.30069 7.50203 6.69531 7.1934 7.19101L3.8592 12.93ZM17.0226 23.3604L16.7328 25.5402L8.8392 27.4524L8.9154 28.8H28.167C28.3285 28.8007 28.4886 28.7695 28.638 28.7083C28.7875 28.647 28.9234 28.5569 29.0379 28.443C29.1524 28.3291 29.2434 28.1938 29.3055 28.0447C29.3677 27.8956 29.3998 27.7357 29.4 27.5742L29.3784 1.73281L26.7408 1.11961L25.2252 7.91341L22.6914 8.97421L20.4444 15.2388L22.5792 20.0322L21.978 21.8724L17.0226 23.3604ZM11.6628 5.49421C13.0182 5.49421 14.1198 4.39741 14.1198 3.04741C14.1192 1.69801 13.0182 0.600006 11.6628 0.600006C10.3074 0.600006 9.2052 1.69801 9.2052 3.04741C9.2046 4.39741 10.3068 5.49421 11.6628 5.49421ZM6.7734 5.87701C6.81917 5.79739 6.84872 5.70951 6.86037 5.61842C6.87202 5.52733 6.86552 5.43484 6.84126 5.34627C6.817 5.2577 6.77545 5.17481 6.71901 5.10237C6.66257 5.02994 6.59235 4.96938 6.5124 4.92421L5.3232 4.23121C5.1606 4.13911 4.96826 4.11473 4.78782 4.16335C4.60737 4.21197 4.45333 4.32968 4.359 4.49101L0.691804 10.7934C0.646256 10.873 0.616859 10.9609 0.605296 11.0519C0.593733 11.1429 0.600231 11.2353 0.624417 11.3238C0.648604 11.4123 0.690005 11.4952 0.74625 11.5676C0.802496 11.6401 0.872482 11.7008 0.952204 11.7462L2.1486 12.4326C2.30912 12.5254 2.49983 12.5508 2.67905 12.5034C2.85827 12.4559 3.01141 12.3394 3.105 12.1794L6.7734 5.87701Z" fill="white"/>
</svg>
