<svg width="30" height="30" viewBox="0 0 30 30" fill="none" xmlns="http://www.w3.org/2000/svg">
<path fill-rule="evenodd" clip-rule="evenodd" d="M3.4613 2.07843C3.1553 2.07843 2.86184 2.18791 2.64547 2.3828C2.42909 2.57769 2.30754 2.84202 2.30754 3.11764V26.1175L11.5377 20.5743L20.7678 26.1175V15.5882C20.7678 15.3126 20.8894 15.0482 21.1057 14.8534C21.3221 14.6585 21.6156 14.549 21.9216 14.549C22.2276 14.549 22.521 14.6585 22.7374 14.8534C22.9538 15.0482 23.0754 15.3126 23.0754 15.5882V30L11.5377 23.0726L0 30V3.11764C0 2.29079 0.364672 1.49781 1.01379 0.913135C1.66291 0.328465 2.54331 0 3.4613 0H12.6914C12.9974 0 13.2909 0.109488 13.5073 0.304378C13.7237 0.499269 13.8452 0.763597 13.8452 1.03921C13.8452 1.31483 13.7237 1.57916 13.5073 1.77405C13.2909 1.96894 12.9974 2.07843 12.6914 2.07843H3.4613Z" fill="#8E8D92"/>
<path fill-rule="evenodd" clip-rule="evenodd" d="M29.6611 2.38185C29.7685 2.47838 29.8537 2.59306 29.9119 2.71931C29.9701 2.84557 30 2.98092 30 3.11761C30 3.2543 29.9701 3.38965 29.9119 3.51591C29.8537 3.64216 29.7685 3.75684 29.6611 3.85337L22.7384 10.0886C22.6313 10.1854 22.504 10.2622 22.3638 10.3146C22.2236 10.367 22.0733 10.394 21.9216 10.394C21.7698 10.394 21.6196 10.367 21.4794 10.3146C21.3392 10.2622 21.2119 10.1854 21.1047 10.0886L17.6434 6.97101C17.5361 6.87439 17.451 6.75968 17.393 6.63344C17.3349 6.5072 17.3051 6.37189 17.3051 6.23525C17.3051 6.0986 17.3349 5.9633 17.393 5.83706C17.451 5.71081 17.5361 5.59611 17.6434 5.49948C17.7507 5.40286 17.878 5.32622 18.0182 5.27393C18.1584 5.22164 18.3086 5.19472 18.4603 5.19472C18.612 5.19472 18.7622 5.22164 18.9024 5.27393C19.0425 5.32622 19.1699 5.40286 19.2771 5.49948L21.9216 7.88344L28.0273 2.38185C28.1345 2.28507 28.2618 2.20828 28.402 2.1559C28.5422 2.10351 28.6924 2.07654 28.8442 2.07654C28.9959 2.07654 29.1462 2.10351 29.2864 2.1559C29.4266 2.20828 29.5539 2.28507 29.6611 2.38185Z" fill="#8E8D92"/>
</svg>
