<svg width="30" height="30" viewBox="0 0 30 30" fill="none" xmlns="http://www.w3.org/2000/svg">
<path d="M29.1667 3.75C29.6271 3.75 30 3.33047 30 2.8125V0.9375C30 0.419531 29.6271 0 29.1667 0H0.833333C0.372917 0 0 0.419531 0 0.9375V2.8125C0 3.33047 0.372917 3.75 0.833333 3.75H1.66562V26.25H0.833333C0.372917 26.25 0 26.6695 0 27.1875V29.0625C0 29.5805 0.372917 30 0.833333 30H13.3333V25.3125C13.3333 24.7969 13.7083 24.375 14.1667 24.375H15.8333C16.2917 24.375 16.6667 24.7969 16.6667 25.3125V30H29.1667C29.6271 30 30 29.5805 30 29.0625V27.1875C30 26.6695 29.6271 26.25 29.1667 26.25H28.3333V3.75H29.1667ZM13.3333 6.375C13.3333 6 13.6667 5.625 14 5.625H16C16.3333 5.625 16.6667 6 16.6667 6.375V8.625C16.6667 9 16.3333 9.375 16 9.375H14C13.6667 9.375 13.3333 9 13.3333 8.625V6.375ZM13.3333 12C13.3333 11.625 13.6667 11.25 14 11.25H16C16.3333 11.25 16.6667 11.625 16.6667 12V14.25C16.6667 14.625 16.3333 15 16 15H14C13.6667 15 13.3333 14.625 13.3333 14.25V12ZM6.66667 6.375C6.66667 6 7 5.625 7.33333 5.625H9.33333C9.66667 5.625 10 6 10 6.375V8.625C10 9 9.66667 9.375 9.33333 9.375H7.33333C7 9.375 6.66667 9 6.66667 8.625V6.375ZM9.33333 15H7.33333C7 15 6.66667 14.625 6.66667 14.25V12C6.66667 11.625 7 11.25 7.33333 11.25H9.33333C9.66667 11.25 10 11.625 10 12V14.25C10 14.625 9.66667 15 9.33333 15ZM10 22.5C10 19.3934 12.2385 16.875 15 16.875C17.7615 16.875 20 19.3934 20 22.5H10ZM23.3333 14.25C23.3333 14.625 23 15 22.6667 15H20.6667C20.3333 15 20 14.625 20 14.25V12C20 11.625 20.3333 11.25 20.6667 11.25H22.6667C23 11.25 23.3333 11.625 23.3333 12V14.25ZM23.3333 8.625C23.3333 9 23 9.375 22.6667 9.375H20.6667C20.3333 9.375 20 9 20 8.625V6.375C20 6 20.3333 5.625 20.6667 5.625H22.6667C23 5.625 23.3333 6 23.3333 6.375V8.625Z" fill="white"/>
</svg>
