<svg width="50" height="50" viewBox="0 0 50 50" fill="none" xmlns="http://www.w3.org/2000/svg">
<path d="M4.1875 11.2499L4.20793 11.2192L4.18186 11.1932L0.313575 7.32489L3.77515 3.83876L46.1364 46.225L42.675 49.6864L38.8068 45.8182L38.7808 45.7921L38.7501 45.8125C34.8072 48.4328 30.0909 49.955 25 49.955C11.2249 49.955 0.0450478 38.7751 0.0450479 25L0.0450478 24.9999C0.035436 20.1077 1.47705 15.3226 4.1875 11.2499ZM7.83186 14.8182L7.79084 14.7772L7.76131 14.8271C5.98243 17.8336 4.95504 21.2915 4.95504 25C4.95504 36.0499 13.9502 45.045 25 45.045C28.7085 45.045 32.1663 44.0176 35.1727 42.2639L35.2231 42.2345L35.1818 42.1932L25.2318 32.2432L25.2096 32.2209L25.1811 32.2342L11.3429 38.6573L17.7908 24.819L17.8041 24.7905L17.7818 24.7682L7.83186 14.8182ZM45.045 25C45.045 13.9501 36.0499 4.955 25 4.955C21.4372 4.9533 17.9407 5.91701 14.882 7.74337L11.2958 4.1571C15.2293 1.55547 19.9289 0.045 25 0.045C38.7751 0.045 49.955 11.2249 49.955 25C49.961 29.8812 48.5307 34.6558 45.8428 38.7292L42.2565 35.1428C44.0244 32.1433 45.045 28.6961 45.045 25ZM24.8774 17.7387L38.6574 11.3426L32.2613 25.1227L24.8774 17.7387Z" fill="#8E8D92" stroke="black" stroke-width="0.09"/>
</svg>
