<svg width="30" height="30" viewBox="0 0 30 30" fill="none" xmlns="http://www.w3.org/2000/svg">
<path d="M20.9514 13.1215C21.5674 13.1232 22.1775 13.0026 22.7466 12.7669C23.3157 12.5311 23.8323 12.1848 24.2666 11.748L28.7783 7.23924C29.1352 6.88241 29.168 6.30174 28.8281 5.92733C28.7428 5.83326 28.6393 5.75751 28.5238 5.70466C28.4083 5.65182 28.2833 5.62299 28.1564 5.61992C28.0294 5.61686 27.9032 5.63961 27.7853 5.68681C27.6674 5.73402 27.5603 5.80468 27.4705 5.89451L23.4492 9.91287C23.3142 10.0477 23.1312 10.1235 22.9404 10.1235C22.7495 10.1235 22.5665 10.0477 22.4315 9.91287C22.1508 9.6328 22.166 9.15936 22.4461 8.87928L26.4498 4.87557C26.5396 4.78582 26.6102 4.67878 26.6573 4.56094C26.7044 4.4431 26.7272 4.31691 26.7241 4.19002C26.721 4.06314 26.6922 3.9382 26.6395 3.82277C26.5867 3.70735 26.511 3.60385 26.417 3.51854C26.2473 3.36465 26.0261 3.27997 25.7971 3.28123C25.5375 3.28141 25.2886 3.38468 25.1051 3.56834L21.1049 7.56795C20.9699 7.70281 20.7868 7.77856 20.596 7.77856C20.4052 7.77856 20.2222 7.70281 20.0871 7.56795C19.8071 7.28787 19.8217 6.81444 20.1018 6.53436L24.1055 2.53182C24.1952 2.44207 24.2658 2.33503 24.313 2.21719C24.3601 2.09935 24.3828 1.97316 24.3798 1.84627C24.3767 1.71939 24.3479 1.59445 24.2951 1.47902C24.2423 1.3636 24.1667 1.2601 24.0727 1.17479C23.903 1.0209 23.6818 0.936223 23.4528 0.937483C23.1932 0.937791 22.9443 1.04104 22.7608 1.22459L18.252 5.73338C17.8151 6.16778 17.4688 6.68452 17.233 7.25369C16.9973 7.82286 16.8768 8.43314 16.8785 9.0492V9.53143C16.8786 9.65472 16.8544 9.77682 16.8073 9.89073C16.7601 10.0046 16.6909 10.1081 16.6037 10.1953L14.5172 12.2824C14.4954 12.3042 14.4696 12.3215 14.4411 12.3333C14.4127 12.3451 14.3822 12.3511 14.3514 12.3511C14.3206 12.3511 14.2901 12.3451 14.2616 12.3333C14.2332 12.3215 14.2073 12.3042 14.1856 12.2824L4.03244 2.12869C3.85721 1.95326 3.61961 1.85439 3.37164 1.85373C3.12368 1.85308 2.88556 1.95068 2.7094 2.12518C1.8217 3.00467 1.34768 4.24627 1.34768 5.71522C1.34182 8.141 2.61682 10.9301 4.67522 12.9855L9.68205 17.9924C10.3937 18.7025 11.3579 19.1014 12.3633 19.1015C12.6838 19.1017 13.003 19.0607 13.3131 18.9797C13.391 18.9593 13.4711 18.9488 13.5516 18.9486C13.7869 18.9487 14.0136 19.0376 14.1862 19.1976L14.8535 19.814C15.0257 19.9899 15.1224 20.226 15.1231 20.4721V20.7967C15.1214 21.5346 15.4114 22.2433 15.9299 22.7683L21.2063 28.1338L21.2115 28.1396C21.7972 28.7252 22.5914 29.0541 23.4196 29.0541C24.2477 29.054 25.0419 28.725 25.6275 28.1393C26.213 27.5537 26.5419 26.7595 26.5419 25.9313C26.5418 25.1032 26.2128 24.309 25.6272 23.7234L17.7182 15.8144C17.6964 15.7927 17.6791 15.7668 17.6673 15.7384C17.6555 15.7099 17.6494 15.6794 17.6494 15.6486C17.6494 15.6178 17.6555 15.5873 17.6673 15.5589C17.6791 15.5304 17.6964 15.5046 17.7182 15.4828L19.8047 13.3963C19.8918 13.3091 19.9952 13.24 20.109 13.1929C20.2228 13.1457 20.3448 13.1214 20.468 13.1215H20.9514Z" fill="white"/>
<path d="M12.3633 20.9766C10.8623 20.9735 9.42307 20.3787 8.3578 19.3213L7.54569 18.5092C7.45782 18.4215 7.33876 18.3723 7.21464 18.3723C7.09051 18.3723 6.97146 18.4215 6.88358 18.5092L1.90311 23.4639C1.01542 24.3516 0.698424 25.6582 1.13788 26.9379C1.16247 27.01 1.19163 27.0804 1.22518 27.1488C1.81639 28.3594 2.96366 29.0625 4.21874 29.0625C4.65036 29.0636 5.0779 28.979 5.4766 28.8136C5.87529 28.6483 6.23721 28.4054 6.54139 28.0992L13.1836 21.4254C13.2115 21.3969 13.2329 21.3626 13.2463 21.3249C13.2597 21.2873 13.2647 21.2472 13.2609 21.2074V21.1922C13.2583 21.1556 13.2483 21.12 13.2316 21.0874C13.2148 21.0549 13.1917 21.026 13.1635 21.0026C13.1353 20.9793 13.1026 20.9618 13.0675 20.9514C13.0324 20.941 12.9956 20.9378 12.9592 20.942C12.7613 20.9639 12.5624 20.9755 12.3633 20.9766Z" fill="white"/>
</svg>
