<svg width="30" height="30" viewBox="0 0 30 30" fill="none" xmlns="http://www.w3.org/2000/svg">
<path d="M18.125 3.75L16.875 7.5L15.625 3.75C15.5598 3.55227 15.5424 3.34188 15.5743 3.13612C15.6062 2.93036 15.6864 2.7351 15.8084 2.56638C15.9304 2.39766 16.0907 2.26029 16.2761 2.16555C16.4615 2.07082 16.6668 2.02142 16.875 2.02142C17.0832 2.02142 17.2885 2.07082 17.4739 2.16555C17.6593 2.26029 17.8196 2.39766 17.9416 2.56638C18.0636 2.7351 18.1438 2.93036 18.1757 3.13612C18.2076 3.34188 18.1902 3.55227 18.125 3.75ZM24.83 7.5625L21.2938 9.33125L23.0625 5.795C23.2262 5.49532 23.4997 5.27081 23.8256 5.16872C24.1515 5.06663 24.5042 5.09491 24.8096 5.24762C25.115 5.40034 25.3493 5.66557 25.4632 5.98751C25.577 6.30944 25.5615 6.66299 25.42 6.97375C25.2922 7.22868 25.0852 7.43527 24.83 7.5625ZM26.875 15L23.125 13.75L26.875 12.5C27.073 12.434 27.2839 12.4161 27.4902 12.4476C27.6966 12.4791 27.8925 12.5592 28.0618 12.6813C28.2311 12.8034 28.369 12.9639 28.4641 13.1497C28.5592 13.3355 28.6088 13.5413 28.6088 13.75C28.6088 13.9587 28.5592 14.1645 28.4641 14.3503C28.369 14.5361 28.2311 14.6966 28.0618 14.8187C27.8925 14.9408 27.6966 15.0209 27.4902 15.0524C27.2839 15.0839 27.073 15.066 26.875 15ZM10.6875 5.795L12.4563 9.33125L8.92 7.5625C8.73252 7.46947 8.56987 7.33315 8.44551 7.16481C8.32115 6.99647 8.23863 6.80095 8.2048 6.59441C8.17096 6.38786 8.18677 6.17623 8.25092 5.97701C8.31506 5.77779 8.42571 5.5967 8.5737 5.4487C8.7217 5.30071 8.90279 5.19006 9.10201 5.12592C9.30123 5.06177 9.51286 5.04596 9.7194 5.0798C9.92595 5.11364 10.1215 5.19615 10.2898 5.32051C10.4581 5.44487 10.5945 5.60752 10.6875 5.795ZM22.22 15.4275C22.3937 14.8975 22.5 14.3388 22.5 13.75C22.5 10.6488 19.9762 8.125 16.875 8.125C15.2 8.125 13.7037 8.8675 12.6787 10.035L12.5 10C11.4441 10.0007 10.4004 10.2251 9.43755 10.6584C8.47469 11.0916 7.61454 11.724 6.91375 12.5138C6.68087 12.4278 6.42844 12.4093 6.18554 12.4606C5.94264 12.5118 5.71915 12.6306 5.54083 12.8033C5.36251 12.976 5.23661 13.1956 5.17763 13.4367C5.11866 13.6778 5.12901 13.9307 5.2075 14.1663C5.27875 14.375 5.405 14.54 5.55375 14.68C5.18863 15.5754 5.00057 16.533 5 17.5L5.0025 17.6575C3.92929 17.9356 2.97866 18.5618 2.29958 19.4382C1.62051 20.3145 1.25136 21.3914 1.25 22.5C1.25 25.2575 3.49375 27.5 6.25 27.5H20C23.4463 27.5 26.25 24.6963 26.25 21.25C26.25 18.5888 24.57 16.3263 22.22 15.4275ZM16.875 10.625C18.5987 10.625 20 12.0263 20 13.75C20 14.2075 19.88 14.6325 19.7025 15.0238C19.26 15.05 18.8025 15.1163 18.305 15.2588C17.9835 14.4228 17.486 13.6659 16.846 13.0393C16.2061 12.4127 15.4388 11.9312 14.5963 11.6275C14.8864 11.3123 15.2386 11.0605 15.6308 10.888C16.023 10.7155 16.4466 10.6259 16.875 10.625ZM20 25H6.25C4.87 25 3.75 23.8788 3.75 22.5C3.75 21.1213 4.87 20 6.135 19.9925L7.9125 20.0125L7.6025 18.51C7.45373 17.7831 7.46841 17.0322 7.64546 16.3117C7.8225 15.5911 8.1575 14.9189 8.62622 14.3438C9.09493 13.7686 9.68564 13.3048 10.3556 12.9859C11.0256 12.667 11.758 12.5011 12.5 12.5L12.5863 12.4825C13.7347 12.51 14.8389 12.9309 15.7142 13.675C16.5895 14.419 17.1829 15.441 17.395 16.57L17.4425 16.8025C17.5165 17.059 17.6718 17.2845 17.8851 17.445C18.0984 17.6055 18.3581 17.6924 18.625 17.6925L18.9862 17.6638C19.3762 17.5513 19.6975 17.5 20 17.5C22.0675 17.5 23.75 19.1825 23.75 21.25C23.75 23.3175 22.0675 25 20 25Z" fill="#FE2D59"/>
</svg>
