<svg width="152" height="229" viewBox="0 0 152 229" fill="none" xmlns="http://www.w3.org/2000/svg">
<path d="M87.5202 6.88132C65.046 6.88132 46.7617 23.6535 46.7617 44.2692C46.7617 51.2345 48.8651 58.032 52.8458 63.9293L85.2001 111.756C85.8199 112.672 86.9118 113.229 88.0861 113.229C88.0951 113.229 88.104 113.229 88.113 113.229C89.2975 113.22 90.3916 112.647 91.0001 111.714L122.53 63.4242C126.291 57.6515 128.279 51.0278 128.279 44.2692C128.279 23.6535 109.994 6.88132 87.5202 6.88132ZM116.7 60.225L88.0347 104.128L58.6195 60.6463C55.3061 55.7377 53.5095 50.0747 53.5095 44.2692C53.5095 27.0894 68.7917 13.0711 87.5202 13.0711C106.249 13.0711 121.508 27.0894 121.508 44.2692C121.508 49.9025 119.83 55.4207 116.7 60.225Z" fill="#7D96D6"/>
<path d="M72.6972 30.1169V35.3045L54.4441 53.7994L72.6972 30.1169Z" fill="#D67F30"/>
<path d="M72.4076 30.3425L78.492 35.3045L84.2866 40.041L87.7634 45.2286L82.2585 40.041L72.4076 35.3045V30.3425Z" fill="#D67F30"/>
<path d="M89.7914 20.9823V25.8316L77.6227 37.2217L76.5068 36.0188L89.7914 20.9823Z" fill="#D67F30"/>
<path d="M89.6465 20.644L105.437 44.3264L89.6465 25.0421V20.644Z" fill="#D67F30"/>
<path d="M109.203 25.8315V28.1998L99.7871 36.4323L97.6141 33.0491L109.203 25.8315Z" fill="#D67F30"/>
<path d="M109.203 25.8315L120.793 41.6198L109.203 28.1998V25.8315Z" fill="#D67F30"/>
<path d="M128.659 3.67C124.349 -1.11009 116.466 -1.21551 106.326 3.32326C105.663 3.6183 104.991 3.93457 104.309 4.27182C101.906 5.45697 99.4416 6.85747 96.9434 8.45708C98.6285 8.57898 100.307 8.81081 101.973 9.14807C103.165 8.46882 104.345 7.84125 105.511 7.26742C107.312 6.3798 109.043 5.63734 110.691 5.04702C113.949 3.87587 116.882 3.28578 119.391 3.28578C120.941 3.28578 122.326 3.51062 123.53 3.9603C124.734 4.40998 125.756 5.08675 126.569 5.98859C128.871 8.5415 129.534 12.9281 128.585 18.5821C128.254 20.5634 127.724 22.7018 126.997 24.969C126.546 26.379 126.018 27.8379 125.414 29.3441C120.812 40.8226 112.431 53.6292 101.817 65.4005C91.2036 77.1718 79.6566 86.4676 69.305 91.5732C67.9472 92.243 66.6315 92.8286 65.3602 93.3274C59.6077 95.5946 54.793 96.1357 51.4017 94.9201C52.4196 96.2761 53.4944 97.5784 54.62 98.822C54.8797 98.836 55.1458 98.8407 55.414 98.8407C59.0187 98.8385 63.2719 97.7985 68.0337 95.7187C68.8425 95.3675 69.6681 94.9833 70.5065 94.5688C81.1813 89.3038 93.0427 79.7692 103.908 67.7193C114.773 55.6694 123.369 42.5139 128.116 30.6768C128.49 29.747 128.837 28.8312 129.153 27.9318C129.937 25.7209 130.557 23.6107 131.014 21.6106C132.832 13.6496 132.051 7.43131 128.659 3.67ZM46.7011 68.1638C44.9822 72.4497 43.8375 76.4079 43.2697 79.9586C44.0236 81.9986 44.8809 83.9799 45.8355 85.8958C45.6242 81.5559 46.8216 75.9372 49.4021 69.4966C49.9195 68.2037 51.7342 65.1294 52.3489 63.8086C52.0428 61.9607 50.5869 61.8615 50.477 59.9924C49.0345 62.7654 47.7695 65.4984 46.7011 68.1638Z" fill="#FE2D59"/>
<path d="M42.7046 88.5773L30.9104 83.19C29.9109 82.7335 29.6881 81.4868 30.4738 80.748C30.7769 80.4629 31.188 80.3029 31.6165 80.3027L51.5056 80.3015L42.7046 88.5773Z" fill="#AABEF1"/>
<path d="M54.9771 84.169L54.9757 102.189C54.9757 102.638 54.7644 103.064 54.3989 103.353L54.3118 103.422C53.5035 104.06 52.2716 103.81 51.815 102.915L46.3759 92.257L54.9771 84.169Z" fill="#AABEF1"/>
<path d="M39.6911 91.4109L31.2678 91.4092L30.2103 92.4036L36.1948 95.1371L39.6911 91.4109Z" fill="#AABEF1"/>
<path d="M43.4835 94.9768L43.4849 102.897L42.3342 103.804L39.5089 98.27L43.4835 94.9768Z" fill="#AABEF1"/>
<path d="M62.7381 73.305C61.691 72.3204 59.9929 72.3204 58.9458 73.305L37.3625 93.6006C36.4143 94.4922 35.8044 95.6527 35.6271 96.9027C35.4709 98.0049 36.4712 98.9455 37.6429 98.7983C38.9722 98.6317 40.2062 98.0582 41.1546 97.1664L62.7381 76.8709C63.7852 75.8865 63.7852 74.2897 62.7381 73.305Z" fill="#AABEF1"/>
<g filter="url(#filter0_d)">
<path d="M60.6562 128.467C60.3958 128.63 60.1191 128.727 59.8262 128.76C59.5332 128.792 59.224 128.841 58.8984 128.906C58.6055 128.939 58.3288 129.004 58.0684 129.102C57.8079 129.199 57.6126 129.378 57.4824 129.639C57.1569 129.313 56.7988 129.036 56.4082 128.809C56.0176 128.581 55.627 128.337 55.2363 128.076C54.9108 128.174 54.5853 128.304 54.2598 128.467C53.9342 128.63 53.6087 128.711 53.2832 128.711C53.0553 128.711 52.8275 128.63 52.5996 128.467C52.3392 128.662 52.0299 128.825 51.6719 128.955C51.3464 129.053 50.9883 129.15 50.5977 129.248C50.2396 129.346 49.8978 129.476 49.5723 129.639C49.2793 129.801 49.0677 130.046 48.9375 130.371C48.8724 130.208 48.7096 130.16 48.4492 130.225C48.2214 130.29 48.0911 130.208 48.0586 129.98C47.0169 130.339 45.959 130.648 44.8848 130.908C43.8105 131.169 42.7363 131.445 41.6621 131.738C40.5879 132.031 39.5299 132.357 38.4883 132.715C37.4466 133.073 36.4375 133.512 35.4609 134.033C35.4284 134.066 35.4121 134.115 35.4121 134.18C35.4121 134.505 35.4609 134.814 35.5586 135.107C35.6562 135.4 35.7376 135.677 35.8027 135.938C35.2168 137.923 34.8262 139.941 34.6309 141.992C34.4355 144.043 34.1751 146.061 33.8496 148.047V148.242C33.8496 148.405 33.9147 148.535 34.0449 148.633C34.1751 148.698 34.2402 148.828 34.2402 149.023L34.1914 149.121C34.0286 149.219 33.9147 149.365 33.8496 149.561C33.7845 149.723 33.752 149.902 33.752 150.098C33.752 150.228 33.7845 150.423 33.8496 150.684C33.2962 152.539 32.9219 154.427 32.7266 156.348C32.5638 158.268 32.3522 160.189 32.0918 162.109L31.6523 165.332C31.5872 165.527 31.5221 165.723 31.457 165.918C31.4245 166.081 31.4082 166.26 31.4082 166.455C31.4082 167.497 31.4733 168.522 31.6035 169.531C31.7663 170.508 31.8151 171.517 31.75 172.559C32.043 173.014 32.1895 173.454 32.1895 173.877C32.1895 174.04 32.1732 174.202 32.1406 174.365C32.1406 174.528 32.1243 174.691 32.0918 174.854C32.515 175.277 33.0033 175.57 33.5566 175.732C34.1426 175.928 34.6634 176.221 35.1191 176.611V176.807C35.1191 177.132 35.0703 177.441 34.9727 177.734C34.875 178.06 34.7936 178.385 34.7285 178.711C34.6634 178.971 34.582 179.346 34.4844 179.834C34.4193 180.322 34.3216 180.648 34.1914 180.811C34.0286 181.038 33.7845 181.234 33.459 181.396C33.166 181.592 32.873 181.689 32.5801 181.689C32.4824 181.689 32.3359 181.641 32.1406 181.543C31.9779 181.445 31.8477 181.364 31.75 181.299C31.5872 181.299 31.3757 181.38 31.1152 181.543C30.8548 181.706 30.5944 181.787 30.334 181.787C30.2038 181.787 30.0898 181.771 29.9922 181.738C29.8945 181.738 29.7806 181.706 29.6504 181.641C29.5202 181.315 29.3249 181.022 29.0645 180.762C28.8366 180.534 28.5599 180.306 28.2344 180.078C28.2669 179.622 28.1855 179.281 27.9902 179.053C27.7949 178.825 27.5996 178.532 27.4043 178.174C27.3392 177.718 27.2741 177.197 27.209 176.611C27.1764 176.025 26.9323 175.602 26.4766 175.342C26.6393 175.114 26.7207 174.805 26.7207 174.414C26.7207 174.251 26.6882 174.072 26.623 173.877C26.5905 173.682 26.4928 173.535 26.3301 173.438V173.34C26.2975 173.177 26.3464 173.063 26.4766 172.998C26.6393 172.9 26.7207 172.77 26.7207 172.607V172.412C26.4928 171.37 26.3789 170.28 26.3789 169.141C26.3789 168.066 26.4115 167.008 26.4766 165.967C26.5417 164.893 26.5417 163.818 26.4766 162.744C26.6719 162.581 26.8184 162.321 26.916 161.963C27.0462 161.605 27.1439 161.214 27.209 160.791C27.2741 160.368 27.3066 159.961 27.3066 159.57C27.3392 159.147 27.3717 158.805 27.4043 158.545C27.5671 156.689 27.8275 154.867 28.1855 153.076C28.5436 151.253 28.7552 149.398 28.8203 147.51C28.9831 147.249 29.0807 146.908 29.1133 146.484C29.1458 146.061 29.1621 145.622 29.1621 145.166C29.1621 144.678 29.1947 144.206 29.2598 143.75C29.3249 143.294 29.4551 142.904 29.6504 142.578C29.6504 141.667 29.7318 140.755 29.8945 139.844C30.0573 138.9 30.1387 137.956 30.1387 137.012C30.1387 136.556 30.0898 136.084 29.9922 135.596C29.6667 135.465 29.3737 135.4 29.1133 135.4C28.7552 135.4 28.3809 135.482 27.9902 135.645C27.6322 135.775 27.3717 135.986 27.209 136.279C26.4928 136.312 25.793 136.426 25.1094 136.621C24.4258 136.816 23.7422 136.914 23.0586 136.914H22.5703C22.4401 136.914 22.2936 136.898 22.1309 136.865C21.903 136.963 21.6589 137.044 21.3984 137.109C21.1706 137.174 21.0729 137.37 21.1055 137.695C20.0964 137.793 19.1035 138.005 18.127 138.33C17.1829 138.656 16.2389 139.014 15.2949 139.404C14.3509 139.762 13.4069 140.104 12.4629 140.43C11.4863 140.755 10.4935 140.967 9.48438 141.064C9.1263 141.227 8.89844 141.569 8.80078 142.09C8.08464 142.025 7.48242 141.846 6.99414 141.553C6.50586 141.26 5.9362 140.983 5.28516 140.723C5.08984 140.039 4.99219 139.388 4.99219 138.77C4.99219 137.956 5.15495 137.174 5.48047 136.426C5.80599 135.677 6.32682 135.124 7.04297 134.766C7.20573 134.798 7.35221 134.831 7.48242 134.863C7.61263 134.863 7.75911 134.863 7.92188 134.863C8.44271 134.863 8.96354 134.766 9.48438 134.57C10.0052 134.375 10.5423 134.277 11.0957 134.277C11.2585 134.277 11.4375 134.326 11.6328 134.424C11.8607 134.294 12.1536 134.196 12.5117 134.131C12.8372 134.033 13.1465 133.952 13.4395 133.887C13.765 133.789 14.0579 133.659 14.3184 133.496C14.5788 133.333 14.7415 133.105 14.8066 132.812C14.9694 132.943 15.1484 133.024 15.3438 133.057C15.5391 133.089 15.7344 133.105 15.9297 133.105C16.3529 133.105 16.7923 133.024 17.248 132.861C17.7038 132.699 18.0618 132.438 18.3223 132.08C18.5501 132.34 18.8757 132.471 19.2988 132.471C19.7546 132.471 20.194 132.357 20.6172 132.129C21.0729 131.868 21.5124 131.738 21.9355 131.738C22.2611 131.738 22.5052 131.852 22.668 132.08C23.026 131.787 23.4492 131.559 23.9375 131.396C24.4258 131.234 24.9141 131.087 25.4023 130.957C25.9232 130.827 26.3952 130.68 26.8184 130.518C27.2741 130.355 27.6322 130.127 27.8926 129.834C28.0553 129.867 28.3158 129.883 28.6738 129.883C29.2272 129.883 29.748 129.818 30.2363 129.688C30.7572 129.525 31.278 129.378 31.7988 129.248L32.8242 129.15C33.0846 129.118 33.3125 129.036 33.5078 128.906C33.7357 128.776 33.9635 128.662 34.1914 128.564C34.4193 128.467 34.6471 128.385 34.875 128.32C35.1354 128.255 35.4447 128.239 35.8027 128.271C36.584 127.848 37.4141 127.523 38.293 127.295C39.1719 127.067 40.0671 126.872 40.9785 126.709C41.89 126.514 42.7852 126.302 43.6641 126.074C44.543 125.814 45.373 125.439 46.1543 124.951H46.3008C46.9518 124.951 47.5866 124.837 48.2051 124.609C48.8561 124.382 49.4583 124.072 50.0117 123.682C50.1094 123.714 50.207 123.73 50.3047 123.73H50.6465C51.5579 123.73 52.4368 123.6 53.2832 123.34C54.1621 123.079 55.0736 122.949 56.0176 122.949C56.571 122.949 57.0104 123.031 57.3359 123.193C57.6615 123.324 57.9544 123.503 58.2148 123.73C58.4753 123.926 58.752 124.121 59.0449 124.316C59.3379 124.512 59.7122 124.658 60.168 124.756C60.4609 125.309 60.6074 125.911 60.6074 126.562C60.6074 127.181 60.6237 127.816 60.6562 128.467ZM108.215 166.504C108.15 166.992 107.971 167.367 107.678 167.627C107.417 167.887 107.108 168.132 106.75 168.359C106.587 168.327 106.424 168.311 106.262 168.311C106.132 168.278 105.985 168.262 105.822 168.262C104.813 168.229 103.853 168.359 102.941 168.652C102.062 168.945 101.151 169.157 100.207 169.287C99.8815 169.352 99.5723 169.385 99.2793 169.385C99.0189 169.352 98.7422 169.368 98.4492 169.434C97.4076 169.596 96.3008 169.727 95.1289 169.824C93.957 169.922 92.7852 170.052 91.6133 170.215C90.4414 170.345 89.2858 170.524 88.1465 170.752C87.0397 170.947 85.998 171.24 85.0215 171.631C84.9238 171.566 84.8262 171.501 84.7285 171.436C84.6309 171.338 84.5169 171.289 84.3867 171.289C84.0612 171.289 83.752 171.338 83.459 171.436C83.166 171.533 82.873 171.566 82.5801 171.533C82.2546 171.729 81.8965 171.875 81.5059 171.973C81.1478 172.038 80.7734 172.103 80.3828 172.168C80.0247 172.201 79.6667 172.266 79.3086 172.363C78.9505 172.461 78.6087 172.64 78.2832 172.9C78.0228 172.77 77.6973 172.705 77.3066 172.705C76.9486 172.673 76.7044 172.542 76.5742 172.314C75.8255 172.673 75.028 172.9 74.1816 172.998C73.3678 173.096 72.5378 173.128 71.6914 173.096C71.138 173.063 70.5033 172.982 69.7871 172.852C69.071 172.721 68.3548 172.542 67.6387 172.314C66.9225 172.054 66.2552 171.761 65.6367 171.436C65.0182 171.077 64.5462 170.654 64.2207 170.166C63.9928 169.84 63.8301 169.482 63.7324 169.092C63.6348 168.701 63.4069 168.408 63.0488 168.213C63.1465 167.464 63.2604 166.732 63.3906 166.016C63.5208 165.299 63.651 164.567 63.7812 163.818C64.4323 163.265 65.0508 162.679 65.6367 162.061C66.2227 161.442 66.776 160.791 67.2969 160.107C67.9154 159.814 68.485 159.456 69.0059 159.033C69.5592 158.61 70.0964 158.187 70.6172 157.764C71.1706 157.308 71.7077 156.868 72.2285 156.445C72.7819 156.022 73.3678 155.648 73.9863 155.322C74.084 155.094 74.2142 154.915 74.377 154.785C74.5723 154.622 74.7676 154.476 74.9629 154.346C75.1582 154.183 75.3372 154.02 75.5 153.857C75.6628 153.662 75.7767 153.434 75.8418 153.174C76.9811 152.49 77.974 151.628 78.8203 150.586C79.6667 149.544 80.2201 148.372 80.4805 147.07C79.9271 146.615 79.2923 146.322 78.5762 146.191C77.8926 146.029 77.1764 145.915 76.4277 145.85C75.7767 145.817 75.0931 145.817 74.377 145.85C73.6934 145.882 72.9935 145.866 72.2773 145.801C71.5612 146.029 70.8125 146.175 70.0312 146.24C69.2826 146.305 68.5339 146.37 67.7852 146.436C67.0365 146.468 66.2878 146.566 65.5391 146.729C64.8229 146.859 64.123 147.119 63.4395 147.51C63.3092 147.51 63.179 147.493 63.0488 147.461C62.9512 147.428 62.8372 147.412 62.707 147.412C61.6654 147.38 60.6888 147.591 59.7773 148.047C58.8659 148.47 57.9707 148.893 57.0918 149.316C57.0267 149.447 56.9941 149.544 56.9941 149.609C56.9941 149.805 57.0267 150 57.0918 150.195C57.1895 150.358 57.2383 150.537 57.2383 150.732C57.2057 150.765 57.1895 150.798 57.1895 150.83C57.1895 150.863 57.1732 150.895 57.1406 150.928C57.1081 151.09 57.0592 151.237 56.9941 151.367C56.9616 151.497 56.9128 151.644 56.8477 151.807C56.4896 152.848 56.2943 153.874 56.2617 154.883C56.2292 155.729 56.2292 156.559 56.2617 157.373C56.2943 158.187 56.2943 159.017 56.2617 159.863C56.1966 160.905 56.0339 161.882 55.7734 162.793C55.9362 163.574 56.0827 164.404 56.2129 165.283C56.3431 166.13 56.5059 166.976 56.7012 167.822C56.8965 168.669 57.1243 169.499 57.3848 170.312C57.6777 171.094 58.0521 171.842 58.5078 172.559C58.4753 172.624 58.4915 172.673 58.5566 172.705C58.6217 172.738 58.6868 172.754 58.752 172.754H59.1426C59.3053 172.754 59.3704 172.819 59.3379 172.949C59.403 173.047 59.4518 173.145 59.4844 173.242C59.5169 173.307 59.582 173.372 59.6797 173.438C59.7448 173.535 59.7448 173.665 59.6797 173.828C59.6471 174.479 59.4844 175.081 59.1914 175.635C58.8984 176.188 58.7194 176.79 58.6543 177.441C58.2637 177.539 57.9056 177.588 57.5801 177.588C57.0267 177.555 56.5384 177.393 56.1152 177.1C55.6921 176.839 55.3014 176.514 54.9434 176.123C54.5853 175.732 54.2435 175.342 53.918 174.951C53.5924 174.528 53.2344 174.17 52.8438 173.877C52.6159 172.965 52.388 171.956 52.1602 170.85C51.9648 169.743 51.623 168.799 51.1348 168.018C51.265 167.725 51.3301 167.367 51.3301 166.943C51.3626 166.292 51.2975 165.658 51.1348 165.039C51.0046 164.388 50.972 163.737 51.0371 163.086C51.0371 162.728 51.0697 162.37 51.1348 162.012C51.2324 161.654 51.2975 161.296 51.3301 160.938C51.3626 160.384 51.2975 159.847 51.1348 159.326C51.0046 158.805 50.9557 158.268 50.9883 157.715C51.0208 157.454 51.0697 157.21 51.1348 156.982C51.2324 156.722 51.3626 156.494 51.5254 156.299C51.3626 155.908 51.3138 155.534 51.3789 155.176C51.4115 154.622 51.4766 154.102 51.5742 153.613C51.6719 153.125 51.737 152.637 51.7695 152.148C51.7695 151.888 51.7533 151.644 51.7207 151.416C51.6882 151.156 51.6393 150.911 51.5742 150.684L51.1348 150.537C50.9395 150.537 50.7441 150.586 50.5488 150.684C50.3861 150.781 50.2396 150.895 50.1094 151.025C49.9792 151.156 49.8652 151.27 49.7676 151.367C49.6699 151.432 49.5723 151.465 49.4746 151.465C49.4095 151.465 49.3281 151.465 49.2305 151.465C49.1654 151.432 49.1003 151.416 49.0352 151.416C48.9701 151.416 48.8398 151.481 48.6445 151.611C48.4818 151.742 48.2702 151.888 48.0098 152.051C47.7819 152.181 47.554 152.327 47.3262 152.49C47.0983 152.62 46.9193 152.702 46.7891 152.734C46.431 152.669 46.138 152.555 45.9102 152.393C45.7148 152.197 45.5195 152.018 45.3242 151.855C45.1615 151.66 44.9824 151.497 44.7871 151.367C44.5918 151.204 44.3477 151.139 44.0547 151.172C43.957 150.977 43.9082 150.765 43.9082 150.537C43.8757 150.309 43.8757 150.081 43.9082 149.854V149.072C44.1361 148.649 44.4453 148.307 44.8359 148.047C45.194 147.754 45.5846 147.51 46.0078 147.314L47.2773 146.729C47.7005 146.533 48.0911 146.289 48.4492 145.996H48.8887C49.4746 146.029 49.9792 145.915 50.4023 145.654C50.8581 145.394 51.2812 145.101 51.6719 144.775C52.0625 144.417 52.4531 144.059 52.8438 143.701C53.2669 143.343 53.7227 143.066 54.2109 142.871C54.569 143.034 54.9434 143.18 55.334 143.311C55.7246 143.408 56.1315 143.473 56.5547 143.506C56.9779 143.506 57.4173 143.441 57.873 143.311C58.3288 143.18 58.6868 142.936 58.9473 142.578C59.11 142.643 59.2402 142.692 59.3379 142.725C59.4681 142.725 59.6146 142.725 59.7773 142.725C60.2656 142.757 60.7539 142.692 61.2422 142.529C61.7305 142.334 62.2025 142.106 62.6582 141.846C63.3092 141.878 63.944 141.846 64.5625 141.748C65.2135 141.618 65.8483 141.488 66.4668 141.357C67.1178 141.227 67.7526 141.113 68.3711 141.016C69.0221 140.885 69.6732 140.837 70.3242 140.869C71.3984 140.902 72.4564 140.804 73.498 140.576C74.5397 140.348 75.5977 140.267 76.6719 140.332C77.4206 140.365 78.153 140.43 78.8691 140.527C79.6178 140.592 80.3665 140.609 81.1152 140.576C81.5384 140.771 81.9128 140.951 82.2383 141.113C82.5964 141.243 83.0358 141.276 83.5566 141.211C84.5983 142.09 85.5423 143.115 86.3887 144.287V145.117C86.3561 145.866 86.2259 146.598 85.998 147.314C85.7702 148.031 85.4935 148.747 85.168 149.463C84.875 150.146 84.5495 150.83 84.1914 151.514C83.8333 152.165 83.4915 152.816 83.166 153.467C81.0501 155.387 78.9342 157.292 76.8184 159.18C74.7025 161.068 72.5215 162.891 70.2754 164.648C70.2103 164.974 70.1126 165.267 69.9824 165.527C69.8848 165.788 69.8197 166.064 69.7871 166.357C69.7871 166.52 69.8034 166.65 69.8359 166.748C70.0638 166.813 70.2591 166.943 70.4219 167.139C70.6172 167.301 70.6823 167.529 70.6172 167.822H71.0566C71.2194 167.822 71.3008 167.887 71.3008 168.018L72.082 168.066C73.319 168.132 74.556 168.099 75.793 167.969C77.0299 167.839 78.2669 167.692 79.5039 167.529C80.7734 167.367 82.0267 167.22 83.2637 167.09C84.5007 166.927 85.7376 166.829 86.9746 166.797C87.2676 166.699 87.5768 166.618 87.9023 166.553C88.2279 166.488 88.5208 166.357 88.7812 166.162H88.9277C89.1556 166.162 89.3184 166.227 89.416 166.357C89.5462 166.488 89.7253 166.569 89.9531 166.602C90.1159 166.602 90.2786 166.569 90.4414 166.504C90.6367 166.439 90.832 166.39 91.0273 166.357C91.4831 166.227 91.9551 166.146 92.4434 166.113C92.9642 166.081 93.4688 166.032 93.957 165.967C95.8451 165.804 97.7168 165.706 99.5723 165.674C101.428 165.609 103.283 165.365 105.139 164.941C105.301 165.169 105.529 165.332 105.822 165.43C106.115 165.495 106.424 165.576 106.75 165.674C107.076 165.739 107.368 165.82 107.629 165.918C107.922 166.016 108.117 166.211 108.215 166.504ZM104.895 168.311C104.732 168.571 104.536 168.815 104.309 169.043C104.081 169.238 103.869 169.45 103.674 169.678C103.446 169.775 103.186 169.824 102.893 169.824C102.632 169.824 102.372 169.824 102.111 169.824C101.883 169.792 101.656 169.792 101.428 169.824C101.232 169.824 101.07 169.889 100.939 170.02C100.679 169.954 100.484 169.84 100.354 169.678C100.223 169.482 99.9954 169.368 99.6699 169.336C99.5397 169.303 99.4095 169.303 99.2793 169.336C98.791 168.783 98.3353 168.197 97.9121 167.578C97.5215 166.96 97.1471 166.374 96.7891 165.82C96.7565 164.616 96.6589 163.395 96.4961 162.158C96.4635 161.865 96.4147 161.572 96.3496 161.279C96.2845 160.986 96.2357 160.71 96.2031 160.449C96.2031 160.124 96.2194 159.814 96.252 159.521C96.3171 159.196 96.3659 158.903 96.3984 158.643C96.5286 157.699 96.6751 156.771 96.8379 155.859C97.0007 154.948 97.1471 154.02 97.2773 153.076C97.4076 152.23 97.4727 151.351 97.4727 150.439C97.4727 149.495 97.3262 148.617 97.0332 147.803L96.9844 147.559C97.0495 147.298 97.1146 147.087 97.1797 146.924C97.2773 146.729 97.3424 146.517 97.375 146.289C97.4401 145.931 97.3587 145.671 97.1309 145.508C97.2285 145.247 97.3913 145.085 97.6191 145.02C97.847 144.922 97.9772 144.727 98.0098 144.434C98.0423 144.303 98.0423 144.173 98.0098 144.043C98.2702 143.945 98.5306 143.864 98.791 143.799C99.084 143.701 99.3607 143.685 99.6211 143.75C100.044 143.815 100.419 143.962 100.744 144.189C101.07 144.385 101.379 144.613 101.672 144.873C102.193 146.436 102.404 148.096 102.307 149.854C102.209 151.579 102.046 153.32 101.818 155.078C101.59 156.836 101.444 158.561 101.379 160.254C101.314 161.914 101.574 163.46 102.16 164.893L102.258 164.941C102.421 164.974 102.551 164.925 102.648 164.795C102.746 164.632 102.876 164.567 103.039 164.6C103.169 164.665 103.251 164.697 103.283 164.697C103.413 165.348 103.625 165.967 103.918 166.553C104.211 167.139 104.536 167.725 104.895 168.311ZM147.668 147.852C147.668 148.307 147.652 148.763 147.619 149.219C147.587 149.674 147.538 150.13 147.473 150.586C147.245 150.911 147.017 151.204 146.789 151.465C146.594 151.693 146.464 151.986 146.398 152.344C146.04 152.604 145.633 152.962 145.178 153.418C144.755 153.874 144.576 154.329 144.641 154.785H143.957C143.566 155.371 143.111 155.876 142.59 156.299C142.069 156.722 141.516 157.129 140.93 157.52L139.221 158.643C138.667 159.001 138.146 159.424 137.658 159.912C137.398 159.945 137.186 159.993 137.023 160.059C136.861 160.124 136.649 160.14 136.389 160.107C135.38 160.758 134.322 161.328 133.215 161.816C132.141 162.305 131.05 162.793 129.943 163.281C128.869 163.737 127.795 164.225 126.721 164.746C125.646 165.267 124.621 165.869 123.645 166.553C123.547 166.52 123.417 166.504 123.254 166.504C122.961 166.504 122.668 166.553 122.375 166.65C122.082 166.715 121.789 166.748 121.496 166.748C121.366 166.748 121.187 166.732 120.959 166.699C120.764 166.667 120.617 166.618 120.52 166.553C120.357 166.455 120.21 166.309 120.08 166.113C119.95 165.918 119.852 165.706 119.787 165.479C119.722 165.218 119.673 164.974 119.641 164.746C119.608 164.518 119.592 164.323 119.592 164.16C119.592 163.965 119.608 163.753 119.641 163.525C119.673 163.298 119.722 163.086 119.787 162.891C120.731 162.826 121.675 162.581 122.619 162.158C123.596 161.735 124.523 161.328 125.402 160.938C125.63 160.84 125.809 160.726 125.939 160.596C126.102 160.433 126.265 160.303 126.428 160.205C126.59 160.075 126.77 159.961 126.965 159.863C127.16 159.766 127.404 159.717 127.697 159.717H127.844C129.895 158.773 131.896 157.747 133.85 156.641C135.835 155.534 137.805 154.411 139.758 153.271C139.855 152.979 140.002 152.686 140.197 152.393C140.425 152.1 140.637 151.823 140.832 151.562C141.027 151.27 141.206 150.977 141.369 150.684C141.532 150.391 141.613 150.098 141.613 149.805C141.613 149.219 141.337 148.73 140.783 148.34H140.588C140.197 148.34 139.855 148.291 139.562 148.193C139.27 148.063 138.993 147.949 138.732 147.852C138.472 147.721 138.179 147.624 137.854 147.559C137.528 147.461 137.154 147.428 136.73 147.461C136.568 147.331 136.307 147.217 135.949 147.119C135.591 147.021 135.298 146.973 135.07 146.973C133.898 146.973 132.743 147.054 131.604 147.217C130.464 147.347 129.325 147.428 128.186 147.461C127.893 147.624 127.616 147.77 127.355 147.9C127.095 148.031 126.786 148.096 126.428 148.096C126.265 148.096 126.118 148.096 125.988 148.096C125.858 148.063 125.712 148.031 125.549 147.998C124.93 148.258 124.23 148.486 123.449 148.682C122.668 148.844 121.887 149.056 121.105 149.316C120.357 149.544 119.657 149.837 119.006 150.195C118.355 150.553 117.85 151.042 117.492 151.66C117.492 151.823 117.525 151.969 117.59 152.1C117.655 152.197 117.688 152.327 117.688 152.49V152.686C117.492 152.881 117.362 153.109 117.297 153.369C117.232 153.597 117.183 153.841 117.15 154.102C117.118 154.329 117.069 154.574 117.004 154.834C116.971 155.062 116.857 155.29 116.662 155.518C116.792 156.006 116.857 156.543 116.857 157.129C116.857 157.78 116.809 158.431 116.711 159.082C116.646 159.733 116.613 160.384 116.613 161.035C116.613 161.654 116.678 162.207 116.809 162.695C116.613 162.891 116.532 163.184 116.564 163.574C116.597 163.965 116.516 164.258 116.32 164.453C116.32 164.714 116.385 164.893 116.516 164.99C116.678 165.088 116.776 165.251 116.809 165.479C116.678 166.032 116.613 166.634 116.613 167.285C116.613 168.229 116.711 169.189 116.906 170.166C117.134 171.143 117.395 172.103 117.688 173.047C118.208 172.884 118.762 172.754 119.348 172.656C119.966 172.526 120.552 172.461 121.105 172.461C121.203 172.461 121.301 172.477 121.398 172.51C121.496 172.51 121.594 172.51 121.691 172.51C121.757 172.868 121.887 173.193 122.082 173.486C122.277 173.779 122.456 174.105 122.619 174.463C122.456 174.691 122.31 174.87 122.18 175C122.082 175.163 122.033 175.374 122.033 175.635C121.577 175.667 121.203 175.781 120.91 175.977C120.617 176.204 120.292 176.449 119.934 176.709H119.738C119.185 176.709 118.729 176.807 118.371 177.002C118.013 177.23 117.606 177.474 117.15 177.734C116.76 177.572 116.369 177.49 115.979 177.49C115.555 177.49 115.132 177.572 114.709 177.734C114.188 177.507 113.765 177.148 113.439 176.66C113.114 176.204 112.837 175.684 112.609 175.098C112.382 174.544 112.17 173.975 111.975 173.389C111.812 172.803 111.617 172.266 111.389 171.777V170.996C111.389 170.247 111.324 169.531 111.193 168.848C111.096 168.132 111.047 167.399 111.047 166.65C111.047 166.357 111.063 166.048 111.096 165.723C111.161 165.397 111.258 165.088 111.389 164.795C111.324 164.502 111.291 164.225 111.291 163.965V163.037C111.291 162.061 111.324 161.084 111.389 160.107C111.486 159.131 111.535 158.154 111.535 157.178C111.535 156.462 111.486 155.729 111.389 154.98C111.226 155.046 111.079 155.111 110.949 155.176C110.819 155.241 110.673 155.273 110.51 155.273C110.347 155.273 110.184 155.257 110.021 155.225C109.891 155.192 109.761 155.16 109.631 155.127C109.305 154.834 109.077 154.476 108.947 154.053C108.817 153.63 108.638 153.239 108.41 152.881C108.41 152.262 108.508 151.758 108.703 151.367C108.866 150.944 109.077 150.57 109.338 150.244C109.598 149.886 109.859 149.544 110.119 149.219C110.412 148.893 110.656 148.486 110.852 147.998H111.047C111.568 147.998 112.089 147.835 112.609 147.51C113.13 147.152 113.716 146.973 114.367 146.973C114.595 146.68 114.904 146.436 115.295 146.24C115.686 146.012 116.092 145.833 116.516 145.703C116.971 145.573 117.411 145.492 117.834 145.459C118.29 145.394 118.713 145.361 119.104 145.361C119.234 145.133 119.429 144.987 119.689 144.922C119.95 144.824 120.21 144.743 120.471 144.678C120.764 144.58 121.024 144.499 121.252 144.434C121.512 144.336 121.724 144.173 121.887 143.945C122.147 144.01 122.391 144.043 122.619 144.043C123.042 144.043 123.449 143.994 123.84 143.896C124.23 143.766 124.621 143.636 125.012 143.506C125.402 143.343 125.793 143.197 126.184 143.066C126.607 142.936 127.046 142.871 127.502 142.871C127.665 142.871 127.827 142.887 127.99 142.92C128.153 142.92 128.316 142.92 128.479 142.92C128.739 142.92 128.885 142.822 128.918 142.627C128.983 142.432 129.097 142.285 129.26 142.188C129.357 142.22 129.536 142.236 129.797 142.236C130.448 142.236 131.083 142.188 131.701 142.09C132.32 141.96 132.954 141.895 133.605 141.895C133.898 141.895 134.191 141.911 134.484 141.943C134.777 141.976 135.07 142.057 135.363 142.188C135.428 142.09 135.493 142.008 135.559 141.943C135.624 141.878 135.673 141.797 135.705 141.699C137.3 141.797 138.798 142.122 140.197 142.676C141.63 143.229 143.111 143.717 144.641 144.141C144.836 144.434 145.064 144.694 145.324 144.922L146.154 145.605C146.447 145.833 146.724 146.061 146.984 146.289C147.245 146.517 147.473 146.794 147.668 147.119V147.852Z" fill="#7D96D6"/>
</g>
<defs>
<filter id="filter0_d" x="0.992188" y="122.949" width="150.676" height="66.8379" filterUnits="userSpaceOnUse" color-interpolation-filters="sRGB">
<feFlood flood-opacity="0" result="BackgroundImageFix"/>
<feColorMatrix in="SourceAlpha" type="matrix" values="0 0 0 0 0 0 0 0 0 0 0 0 0 0 0 0 0 0 127 0"/>
<feOffset dy="4"/>
<feGaussianBlur stdDeviation="2"/>
<feColorMatrix type="matrix" values="0 0 0 0 0 0 0 0 0 0 0 0 0 0 0 0 0 0 0.25 0"/>
<feBlend mode="normal" in2="BackgroundImageFix" result="effect1_dropShadow"/>
<feBlend mode="normal" in="SourceGraphic" in2="effect1_dropShadow" result="shape"/>
</filter>
</defs>
</svg>
